HIERARCHY
ROOT Hips
{
	OFFSET 0.000000 0.000000 0.000000
	CHANNELS 6 Xposition Yposition Zposition Zrotation Yrotation Xrotation 
	JOINT LowerBack
	{
		OFFSET 0.000000 0.000000 0.000000
		CHANNELS 3 Zrotation Yrotation Xrotation
		JOINT Spine
		{
			OFFSET 0.028270 2.035590 -0.193380
			CHANNELS 3 Zrotation Yrotation Xrotation
			JOINT Spine1
			{
				OFFSET 0.056720 2.048850 -0.042750
				CHANNELS 3 Zrotation Yrotation Xrotation
				JOINT Neck
				{
					OFFSET 0.000000 0.000000 0.000000
					CHANNELS 3 Zrotation Yrotation Xrotation
					JOINT Neck1
					{
						OFFSET -0.054170 1.746240 0.172020
						CHANNELS 3 Zrotation Yrotation Xrotation
						JOINT Head
						{
							OFFSET 0.104070 1.761360 -0.123970
							CHANNELS 3 Zrotation Yrotation Xrotation
							End Site
							{
								OFFSET 0.000000 0.000000 0.000000
							}
						}
					}
				}
				JOINT LeftShoulder
				{
					OFFSET 0.000000 0.000000 0.000000
					CHANNELS 3 Zrotation Yrotation Xrotation
					JOINT LeftArm
					{
						OFFSET 3.362410 1.200890 -0.311210
						CHANNELS 3 Zrotation Yrotation Xrotation
						JOINT LeftForeArm
						{
							OFFSET 4.983000 -0.000000 -0.000000
							CHANNELS 3 Zrotation Yrotation Xrotation
							JOINT LeftHand
							{
								OFFSET 3.483560 -0.000000 -0.000000
								CHANNELS 3 Zrotation Yrotation Xrotation
								JOINT LeftFingerBase
								{
									OFFSET 0.000000 0.000000 0.000000
									CHANNELS 3 Zrotation Yrotation Xrotation
									JOINT LeftHandIndex1
									{
										OFFSET 0.715260 -0.000000 -0.000000
										CHANNELS 3 Zrotation Yrotation Xrotation
										End Site
										{
											OFFSET 0.000000 0.000000 0.000000
										}
									}
								}
								JOINT LThumb
								{
									OFFSET 0.000000 0.000000 0.000000
									CHANNELS 3 Zrotation Yrotation Xrotation
									End Site
									{
										OFFSET 0.000000 0.000000 0.000000
									}
								}
							}
						}
					}
				}
				JOINT RightShoulder
				{
					OFFSET 0.000000 0.000000 0.000000
					CHANNELS 3 Zrotation Yrotation Xrotation
					JOINT RightArm
					{
						OFFSET -3.136600 1.374050 -0.404650
						CHANNELS 3 Zrotation Yrotation Xrotation
						JOINT RightForeArm
						{
							OFFSET -5.241900 -0.000000 -0.000000
							CHANNELS 3 Zrotation Yrotation Xrotation
							JOINT RightHand
							{
								OFFSET -3.444170 -0.000000 -0.000000
								CHANNELS 3 Zrotation Yrotation Xrotation
								JOINT RightFingerBase
								{
									OFFSET 0.000000 0.000000 0.000000
									CHANNELS 3 Zrotation Yrotation Xrotation
									JOINT RightHandIndex1
									{
										OFFSET -0.622530 -0.000000 -0.000000
										CHANNELS 3 Zrotation Yrotation Xrotation
										End Site
										{
											OFFSET 0.000000 0.000000 0.000000
										}
									}
								}
								JOINT RThumb
								{
									OFFSET 0.000000 0.000000 0.000000
									CHANNELS 3 Zrotation Yrotation Xrotation
									End Site
									{
										OFFSET 0.000000 0.000000 0.000000
									}
								}
							}
						}
					}
				}
			}
		}
	}
}
}
MOTION
Frames: 7
Frame Time: 0.008333
5.112321 17.374726 1.063560 -175.945914 -65.063579 -172.928558 4.069262 -6.398196 -8.151244 0.716974 -6.934073 -4.886491 -5.873182 -7.122445 -2.727210 10.460455 -1.821735 2.145844 -1.558065 -0.260073 2.755878 0.000000 0.000000 0.000000 18.172010 -9.586971 5.296826 -29.393092 -44.296457 0.448132 -4.557251 -3.193609 -0.046547 -21.879950 21.510477 -4.243335 0.023510 -0.159297 0.000000 0.000000 0.000000 0.000000 0.000000 0.000000 0.000000 4.581645 -4.411574 -10.456294 87.971003 66.256683 10.759289 -174.305319 59.236749 179.633623 -18.631723 21.052701 -3.716849 0.001712 -1.230801 0.000000 0.000000 0.000000 0.000000 0.000000 0.000000 0.000000 
5.107214 17.374994 1.066755 -176.173980 -64.831660 -172.884165 4.349128 -6.329442 -8.152447 0.777389 -6.877412 -4.860045 -5.835654 -7.060805 -2.503653 9.916887 -2.089997 2.065823 -1.626079 -0.261952 2.732054 0.000000 0.000000 0.000000 16.946180 -8.654913 5.316857 -33.180428 -43.539161 5.489299 -4.601612 -6.603658 -0.051528 -20.745300 22.012588 -4.101749 -0.019135 -0.134587 0.000000 0.000000 0.000000 0.000000 0.000000 0.000000 0.000000 4.110418 -4.593557 -10.473036 87.900935 66.220144 10.974044 -174.349624 59.109193 179.639148 -18.105713 20.992159 -3.598396 -0.009212 -1.231693 0.000000 0.000000 0.000000 0.000000 0.000000 0.000000 0.000000 
5.102799 17.374152 1.069416 -176.413595 -64.525155 -172.819726 4.606039 -6.246617 -8.119466 0.834599 -6.810574 -4.831812 -5.800802 -6.988158 -2.319479 9.410067 -2.338866 1.968560 -1.686679 -0.263143 2.704168 0.000000 0.000000 0.000000 15.447564 -7.666617 5.280639 -36.327630 -42.592472 8.459734 -4.416114 -10.318244 -0.054804 -17.769073 22.763876 -3.611720 -0.064257 -0.105385 -0.000000 0.000000 0.000000 0.000000 0.000000 0.000000 0.000000 3.657063 -4.690641 -10.452129 87.601875 66.221945 10.938253 -174.394940 58.914658 179.644139 -17.647984 20.942591 -3.496649 -0.017996 -1.232910 0.000000 0.000000 0.000000 0.000000 0.000000 0.000000 0.000000 
5.098903 17.372163 1.071206 -176.658708 -64.167140 -172.729578 4.829519 -6.143966 -8.065971 0.883496 -6.726240 -4.807843 -5.777455 -6.898596 -2.186880 8.948250 -2.569924 1.873488 -1.739966 -0.264013 2.677689 0.000000 0.000000 0.000000 13.745265 -6.704401 5.176693 -38.913808 -41.358436 10.065520 -4.064022 -14.597197 -0.056277 -13.681989 23.276265 -2.820725 -0.104433 -0.067778 -0.000000 0.000000 0.000000 0.000000 0.000000 0.000000 0.000000 3.223032 -4.725303 -10.380910 87.039276 66.238868 10.594495 -174.437182 58.651285 179.648236 -17.309562 20.888713 -3.419398 -0.023097 -1.234110 0.000000 0.000000 0.000000 0.000000 0.000000 0.000000 0.000000 
5.095565 17.369037 1.071964 -176.904541 -63.781778 -172.611524 5.011461 -6.015562 -8.005425 0.920750 -6.616939 -4.792118 -5.769989 -6.785860 -2.108534 8.536688 -2.786450 1.791794 -1.786215 -0.264786 2.655739 0.000000 0.000000 0.000000 11.890935 -5.801135 5.003539 -40.981326 -39.872291 10.884081 -3.618065 -19.521985 -0.055880 -9.376952 23.152970 -1.902053 -0.133362 -0.022116 0.000000 0.000000 0.000000 0.000000 0.000000 0.000000 0.000000 2.809004 -4.725220 -10.255761 86.202131 66.251134 9.911774 -174.472689 58.323574 179.651183 -17.129249 20.814584 -3.371735 -0.023322 -1.234885 0.000000 0.000000 0.000000 0.000000 0.000000 0.000000 0.000000 
5.092667 17.364890 1.071566 -177.144072 -63.389763 -172.466891 5.147783 -5.857981 -7.949368 0.945458 -6.478220 -4.784132 -5.777910 -6.646045 -2.070239 8.178055 -2.993587 1.719688 -1.825352 -0.265399 2.637109 0.000000 0.000000 0.000000 9.941103 -4.924008 4.775152 -42.602588 -38.303461 11.313925 -3.157173 -24.965786 -0.053348 -5.744608 22.370248 -1.108513 -0.146965 0.026297 0.000000 0.000000 0.000000 0.000000 0.000000 0.000000 0.000000 2.415384 -4.717062 -10.086401 85.112524 66.248007 8.897459 -174.498129 57.940943 179.652829 -17.130954 20.705986 -3.355860 -0.017960 -1.234783 0.000000 0.000000 0.000000 0.000000 0.000000 0.000000 0.000000 
5.089913 17.359902 1.070091 -177.365779 -63.006315 -172.301805 5.238149 -5.673914 -7.905686 0.958903 -6.312136 -4.779480 -5.796694 -6.480763 -2.045768 7.873514 -3.197158 1.641922 -1.856961 -0.265582 2.617262 0.000000 0.000000 0.000000 7.989058 -4.004848 4.514721 -43.925135 -36.863612 11.582582 -2.743575 -30.680530 -0.047958 -3.398591 21.241203 -0.609727 -0.144462 0.069946 0.000000 0.000000 0.000000 0.000000 0.000000 0.000000 0.000000 2.043976 -4.717936 -9.892202 83.822868 66.228098 7.595936 -174.511054 57.517023 179.653182 -17.318658 20.550496 -3.370272 -0.006956 -1.233330 0.000000 0.000000 0.000000 0.000000 0.000000 0.000000 0.000000 
